<svg xmlns="http://www.w3.org/2000/svg" xmlns:xlink="http://www.w3.org/1999/xlink" width="349" height="360">
    <defs>
        <linearGradient id="A" x1="0%" y1="0%" x2="100%" y2="100%">
            <stop offset="4%" stop-color="#0ff"/>
            <stop offset="100%" stop-color="#080080"/>
        </linearGradient>
        <linearGradient id="B" x1="0%" y1="0%" x2="100%" y2="100%">
            <stop offset="0%" stop-color="#0ff"/>
            <stop offset="95%" stop-color="#040080"/>
        </linearGradient>
        <linearGradient id="C" x1="0%" y1="0%" x2="100%" y2="100%">
            <stop offset="0%" stop-color="#0af"/>
            <stop offset="100%" stop-color="#00387f"/>
        </linearGradient>
        <path id="D" d="M31.125 41.500032c0-5.747816 4.627217-10.375033 10.375033-10.375033s10.374933 4.627217 10.374933 10.375033-4.627216 10.374933-10.374933 10.374933S31.125 47.247749 31.125 41.500032z"/>
    </defs>
    <path d="M161.6595.2488c-44.287 4.6424-81.1686 22.1639-111.0804 53.0137-26.8626 27.705-44.5774 64.3953-49.5143 102.8827-2.178 16.9225-.8712 48.5211 2.6137 63.347l2.6136 11.2317 92.9301.4493c88.4286.2995 92.9299.4492 95.6888 3.1449 12.9231 12.1302 32.3803 9.2848 39.7856-5.8406 3.9206-8.0868 4.0657-13.7775.4357-21.8644-4.2109-9.5844-10.4547-13.3283-22.0709-13.3283-8.8574 0-10.3094.4493-15.5367 4.7922l-5.9534 4.942H157.739c-18.586 0-37.898-.5991-42.8349-1.3479-34.994-5.2414-56.6293-38.6371-47.6267-73.9796 4.7918-19.3186 17.134-32.7967 36.8817-40.4342 7.9861-3.1449 10.4546-3.1449 112.3872-3.744l104.1106-1.6473c0-.599-3.1945-5.541-7.1149-10.7824-25.5558-34.8933-64.6154-59.9026-105.4175-67.6899C195.637.9976 171.0977-.6498 161.6595.2488z" fill="url(#A)" fill-opacity=".9"/>
    <path d="M128.262761 120.35337c-18.00518 5.990268-20.76403 33.245931-4.501262 43.728891 8.712188 5.540972 22.216039 3.44438 29.040582-4.342938 2.758917-2.995151 3.920524-3.144905 41.382892-3.144905 32.815939 0 40.076118.449296 48.207502 2.695643 20.618796 5.840479 35.574723 22.014165 41.382892 44.178119 2.613617 10.333207 2.613617 17.671262-.435636 28.603485-4.79173 17.97077-16.55317 32.047863-33.687144 40.434232l-9.583393 4.642446-105.707862.748771-105.562694.748805 9.147824 11.980502c16.843505 21.864446 39.350013 40.583986 61.85652 51.366421 13.939488 6.58925 33.687145 13.178569 45.448585 15.275126 18.005179 2.995152 62.582558 1.198102 71.585148-2.845362 1.597243-.748737 6.824543-2.396066 11.471038-3.893676 22.361274-6.739039 46.900594-21.864446 66.793419-41.332723 24.53932-23.961003 41.528126-55.409851 49.659444-91.950441 4.646562-20.965887 3.339721-68.58842-2.323215-84.013335l-1.452009-3.594168h-92.639646-92.784748l-2.758917-3.144871c-5.227299-6.140022-16.117534-8.835631-24.53932-6.140022z" fill="url(#B)"/>
    <path d="M129.2929 143.264041h5.7734V154.5h-5.7734zm7.2745-5.073889h5.7734V154.5h-5.7734zm70.2255 80.073889h5.7734V229.5h-5.7734zm7.2745-5.073889h5.7734V229.5h-5.7734zm7.1592-5.912452H227V229.5h-5.7734zM199.5 221.509885h5.7734V229.5H199.5z" fill="#ccf2ff"/>
    <g transform="matrix(0 1 -1 0 -211.087502 -224.087502)" stroke="url(#C)">
        <g stroke-width="2.0833">
            <use xlink:href="#D" fill="#3f3f3f"/>
            <path d="M37.35 103.749963h8.299967l-4.149934-51.874965z" fill="#d0cfce"/>
            <path d="M41.500033 51.874998l4.149934 51.874965H41.4585l.041533-51.874965" fill="#9b9b9a"/>
        </g>
        <g fill="none" stroke-width="4.1667">
            <use xlink:href="#D"/>
            <path d="M39.424966 53.950032l-4.149934 51.874965h12.45l-4.150033-51.874965m10.924924 26.94389c16.548042-5.459374 28.500041-21.019782 28.500041-39.39389C82.999964 18.579583 64.420481 0 41.500032 0S0 18.579583 0 41.500032c0 18.374108 11.952 33.934516 28.500141 39.39389m24.594924-10.524433c11.44155-4.600324 19.529966-15.782515 19.529966-28.869457 0-17.189366-13.935733-31.124999-31.124999-31.124999S10.375033 24.310666 10.375033 41.500032c0 13.086942 8.088316 24.269133 19.529866 28.869457M51.65714 59.583607c6.318325-3.558609 10.592858-10.316867 10.592858-18.083575 0-11.459976-9.29009-20.750066-20.749966-20.750066s-20.750066 9.29009-20.750066 20.750066c0 7.766708 4.274533 14.524966 10.592958 18.083575" stroke-miterlimit="10"/>
        </g>
    </g>
    <path d="M143.7266 132.2777H149.5V154.5h-5.7734zM122 146.509885h5.7734V154.5H122z" fill="#ccf2ff"/>
</svg>