<svg xmlns="http://www.w3.org/2000/svg" xmlns:xlink="http://www.w3.org/1999/xlink" width="224" height="277" stroke="#000" stroke-linecap="round" stroke-linejoin="round" fill="#fff" fill-rule="evenodd"><defs><linearGradient id="A" x1="0%" y1="0%" x2="100%" y2="100%"><stop offset="0%" stop-color="#0af"/><stop offset="100%" stop-color="#00387f"/></linearGradient><linearGradient id="B" x1="0%" y1="0%" x2="100%" y2="100%"><stop offset="0%" stop-color="#ec3932"/><stop offset="100%" stop-color="#941212"/></linearGradient><linearGradient id="C" x1="0%" y1="0%" x2="100%" y2="100%"><stop offset="0%" stop-color="gray"/><stop offset="100%"/></linearGradient><path d="M0 0l4 5h-8z" stroke="none" id="D"/></defs><g stroke="none"><g transform="matrix(-1 0 0 -1 221.5 276)"><g fill="url(#A)"><path d="M0 25v104.9532l110 44.5316v-30.2702l-73.5885-29.791V67.6305L110 97.4213V69.5316L0 25h0z"/><path d="M220 25v104.9532l-110 44.5316v-30.2702l73.5885-29.791V67.6305L110 97.4213V69.5316L220 25h0z"/></g><g fill="url(#B)"><path d="M0 273.7755V144.2488l110-54.9581v37.3578l-73.5885 36.7662v54.8111L110 181.4596v37.3581L0 273.7755h0z"/><path d="M220 273.7755V144.2488L110 89.2907v37.3578l73.5885 36.7662v54.8111L110 181.4596v37.3581l110 54.9578h0z"/></g></g><g fill="url(#C)" fill-rule="nonzero"><path d="M159.1307 82.1046c-.5455 1.4944-1.0739 2.2579-1.8921 2.6478-1.0397.5035-2.0454.4223-3.6306-.2762l-1.3296-.601-1.3466 1.2833c-.75.7147-1.3636 1.3807-1.3636 1.4782 0 .1137.2727.731.5966 1.3807.6818 1.3645.75 2.1605.2727 3.1676-.4261.8772-.9716 1.2508-2.5909 1.8031l-1.3466.4548v1.9493 1.9493l1.3466.4548c1.6193.5523 2.1648.9259 2.5909 1.8031.4773 1.0071.4091 1.8031-.2727 3.1676-.3239.6498-.5966 1.267-.5966 1.3807 0 .0975.6136.7635 1.3636 1.4783l1.3466 1.2832 1.3296-.601c1.5852-.6985 2.5909-.7797 3.6306-.2762.8182.3899 1.3466 1.1534 1.8921 2.6478l.392 1.1046 2.0284-.0487 2.0284-.0487.4773-1.2671c1.0057-2.6965 2.5909-3.33 5.3352-2.1117l1.3296.601 1.4489-1.397 1.4659-1.3807-.5966-1.1208c-.75-1.4133-.8693-1.9818-.6307-2.8265.3068-1.1046 1.1591-1.8518 2.7273-2.3716l1.3636-.4386v-1.9818-1.9818l-1.3636-.4385c-1.5682-.5199-2.4205-1.2671-2.7273-2.3717-.2386-.8447-.1193-1.4132.6307-2.8264l.5966-1.1209-1.4659-1.3807-1.4489-1.397-1.3296.601c-2.7443 1.2183-4.3295.5848-5.3352-2.1117l-.4773-1.267-2.0284-.0488L159.5227 81l-.392 1.1046zm4.875 8.6581c1.0738.5035 1.9091 1.2995 2.5398 2.4366.4602.8122.4602 3.5737 0 4.3859-.6478 1.1533-1.466 1.933-2.608 2.469-2.25 1.0559-4.6705.6173-6.392-1.137-1.9262-1.9656-1.9773-5.0194-.0853-6.9687 1.8068-1.8681 4.1762-2.2904 6.5455-1.1858z"/><path d="M59.1307 82.1046c-.5455 1.4944-1.0739 2.2579-1.8921 2.6478-1.0397.5035-2.0454.4223-3.6306-.2762l-1.3296-.601-1.3466 1.2833c-.75.7147-1.3636 1.3807-1.3636 1.4782 0 .1137.2727.731.5966 1.3807.6818 1.3645.75 2.1605.2727 3.1676-.4261.8772-.9716 1.2508-2.5909 1.8031l-1.3466.4548v1.9493 1.9493l1.3466.4548c1.6193.5523 2.1648.9259 2.5909 1.8031.4773 1.0071.4091 1.8031-.2727 3.1676-.3239.6498-.5966 1.267-.5966 1.3807 0 .0975.6136.7635 1.3636 1.4783l1.3466 1.2832 1.3296-.601c1.5852-.6985 2.5909-.7797 3.6306-.2762.8182.3899 1.3466 1.1534 1.8921 2.6478l.392 1.1046 2.0284-.0487 2.0284-.0487.4773-1.2671c1.0057-2.6965 2.5909-3.33 5.3352-2.1117l1.3296.601 1.4489-1.397 1.4659-1.3807-.5966-1.1208c-.75-1.4133-.8693-1.9818-.6307-2.8265.3068-1.1046 1.1591-1.8518 2.7273-2.3716L76.5 97.374v-1.9818-1.9818l-1.3636-.4385c-1.5682-.5199-2.4205-1.2671-2.7273-2.3717-.2386-.8447-.1193-1.4132.6307-2.8264l.5966-1.1209-1.4659-1.3807-1.4489-1.397-1.3296.601c-2.7443 1.2183-4.3295.5848-5.3352-2.1117l-.4773-1.267-2.0284-.0488L59.5227 81l-.392 1.1046zm4.875 8.6581c1.0738.5035 1.9091 1.2995 2.5398 2.4366.4602.8122.4602 3.5737 0 4.3859-.6478 1.1533-1.466 1.933-2.608 2.469-2.25 1.0559-4.6705.6173-6.392-1.137-1.9262-1.9656-1.9773-5.0194-.0853-6.9687 1.8068-1.8681 4.1762-2.2904 6.5455-1.1858z"/></g></g><g transform="translate(1.5 1.5)"><path d="M38 60L3.6116 5.7025" fill="none" stroke="#fff" stroke-width="3"/><use transform="matrix(1.267228634335 -.802578088613 .802578088613 1.267228634335 0 0)" xlink:href="#D"/></g><g transform="translate(184 1.5)"><path d="M0 60L33.922501 5.724" fill="none" stroke="#fff" stroke-width="3"/><use transform="matrix(1.271997569898 .794998227781 -.794998227781 1.271997569898 5.700060752561 -19.874955694521)" x="25" xlink:href="#D"/></g><g transform="translate(111.5 95.5)"><path fill="none" d="M0 7.875v22.75" stroke-width="4" stroke="#fff"/><use transform="matrix(1.75 -2.74889e-7 2.74889e-7 1.75 0 0)" xlink:href="#D"/><use y="22" transform="matrix(-1.75 -9.163e-8 9.163e-8 -1.75 -.000002015855 77)" xlink:href="#D"/></g></svg>